<?xml version="1.0" encoding="UTF-8"?>
<svg width="200" height="80" viewBox="0 0 200 80" xmlns="http://www.w3.org/2000/svg">
  <!-- Círculo de fondo blanco -->
  <circle cx="30" cy="40" r="25" fill="white"/>
  
  <!-- Elefante minimalista - solo línea coral sin relleno -->
  <g fill="none" stroke="#FF6B6B" stroke-width="3" stroke-linecap="round" stroke-linejoin="round">
    <!-- Cuerpo principal -->
    <path d="M 15 45 C 15 35 20 25 30 25 C 40 25 45 35 45 45 C 45 50 40 55 30 55 C 20 55 15 50 15 45 Z"/>
    
    <!-- Trompa curvada -->
    <path d="M 15 40 Q 8 42 10 48 Q 12 46 14 44"/>
    
    <!-- Patas -->
    <line x1="22" y1="55" x2="22" y2="62"/>
    <line x1="30" y1="55" x2="30" y2="62"/>
    <line x1="38" y1="55" x2="38" y2="62"/>
    
    <!-- Cola pequeña -->
    <path d="M 45 50 Q 48 48 46 52"/>
  </g>
  
  <!-- Texto "Elefante Lab" -->
  <text x="70" y="35" font-family="Inter, Arial, sans-serif" font-size="18" font-weight="700" fill="white">
    Elefante
  </text>
  <text x="70" y="52" font-family="Inter, Arial, sans-serif" font-size="18" font-weight="700" fill="white">
    Lab
  </text>
</svg>