<?xml version="1.0" encoding="UTF-8"?>
<svg width="200" height="80" viewBox="0 0 200 80" xmlns="http://www.w3.org/2000/svg">
  <!-- Círculo de fondo blanco -->
  <circle cx="30" cy="40" r="25" fill="white"/>
  
  <!-- Elefante minimalista - exactamente como la imagen de referencia -->
  <g fill="none" stroke="#FF6B6B" stroke-width="6" stroke-linecap="round" stroke-linejoin="round">
    <!-- Cuerpo redondeado del elefante -->
    <path d="M 12 45 C 12 32 18 22 30 22 C 42 22 48 32 48 45 C 48 52 42 58 30 58 C 18 58 12 52 12 45 Z"/>
    
    <!-- Trompa característica -->
    <path d="M 12 42 C 6 44 4 48 8 50 C 10 48 11 46 12 44"/>
    
    <!-- Patas simples -->
    <path d="M 22 58 C 22 60 22 62 24 62"/>
    <path d="M 30 58 C 30 60 30 62 32 62"/>
    <path d="M 38 58 C 38 60 38 62 40 62"/>
  </g>
  
  <!-- Texto "Elefante Lab" en blanco -->
  <text x="70" y="35" font-family="Inter, Arial, sans-serif" font-size="18" font-weight="700" fill="white">
    Elefante
  </text>
  <text x="70" y="52" font-family="Inter, Arial, sans-serif" font-size="18" font-weight="700" fill="white">
    Lab
  </text>
</svg>